#N canvas 595 299 450 300 10;
#X obj 129 152 nbx 5 14 -1e+37 1e+37 0 0 empty empty empty 0 -8 0 10
-262144 -1 -1 103 256;
#X msg 136 43 reset;
#X msg 221 25 lol;
#X obj 241 62 nbx 5 14 -1e+37 1e+37 0 0 empty empty empty 0 -8 0 10
-262144 -1 -1 0 256;
#X obj 231 149 nbx 5 14 -1e+37 1e+37 0 0 empty empty empty 0 -8 0 10
-262144 -1 -1 206 256;
#X obj 11 29 tgl 15 0 empty empty empty 17 7 0 10 -262144 -1 -1 0 1
;
#X obj 99 38 bng 15 250 50 0 empty empty empty 17 7 0 10 -262144 -1
-1;
#X obj 14 55 metro 100;
#X symbolatom 260 124 10 0 0 0 - - -;
#X obj 188 97 counter;
#X connect 1 0 9 0;
#X connect 2 0 9 1;
#X connect 3 0 9 2;
#X connect 5 0 7 0;
#X connect 6 0 9 0;
#X connect 7 0 9 0;
#X connect 9 0 0 0;
#X connect 9 1 4 0;
#X connect 9 2 8 0;
