#N canvas 0 24 1268 693 10;
#X obj 108 138 vu 15 120 empty VU -1 -8 0 10 -1 -1 1 0;
#X obj 100 78 - 100;
#X obj 164 133 vsl 15 128 0 127 0 0 empty empty vol. -10 -9 0 10 -204800
-1 -1 0 1;
#X obj 161 276 tgl 15 0 empty empty power -40 7 0 10 -261234 -1 -1
0 1;
#X obj -130 -318 inlet~;
#X obj -81 -236 hip~ 1;
#X obj 100 59 env~ 100;
#X obj 196 -172 dbtorms;
#X obj 196 -110 /;
#X obj 8 -1 *~ 1;
#X obj -3 82 *~;
#X obj 57 314 / 127;
#X obj 195 -83 nbx 5 14 -1e+37 1e+37 0 0 empty empty empty 0 -8 0 10
-262144 -1 -1 0.7 256;
#X obj 233 -143 clip 1 999999;
#X obj 196 -194 env~;
#X msg 195 -143 0.7;
#X obj -10 -318 inlet~;
#X obj -18 -237 hip~ 1;
#X obj 88 -2 *~ 1;
#X obj 52 84 *~;
#X obj 161 296 tgl 15 0 empty empty mono -40 7 0 10 -204800 -1 -1 0
1;
#X obj -47 263 *~;
#X obj -85 304 *~ 1;
#X obj -36 302 *~ 1;
#X obj -69 339 dac~;
#X obj 220 269 loadbang;
#X obj -130 341 outlet~;
#X obj -29 344 outlet~;
#X obj 15 227 + 1;
#X obj 4 248 % 2;
#X obj -14 274 *~;
#X connect 1 0 0 0;
#X connect 2 0 3 0;
#X connect 3 0 11 0;
#X connect 4 0 5 0;
#X connect 5 0 9 0;
#X connect 5 0 14 0;
#X connect 6 0 1 0;
#X connect 7 0 15 0;
#X connect 7 0 13 0;
#X connect 8 0 12 0;
#X connect 9 0 10 0;
#X connect 10 0 6 0;
#X connect 10 0 21 0;
#X connect 10 0 22 0;
#X connect 11 0 10 1;
#X connect 11 0 19 1;
#X connect 12 0 9 1;
#X connect 12 0 18 1;
#X connect 13 0 8 1;
#X connect 14 0 7 0;
#X connect 15 0 8 0;
#X connect 16 0 17 0;
#X connect 17 0 14 0;
#X connect 17 0 18 0;
#X connect 18 0 19 0;
#X connect 19 0 30 0;
#X connect 20 0 21 1;
#X connect 20 0 28 0;
#X connect 21 0 23 0;
#X connect 22 0 24 0;
#X connect 22 0 26 0;
#X connect 23 0 24 1;
#X connect 23 0 27 0;
#X connect 25 0 20 0;
#X connect 28 0 29 0;
#X connect 29 0 30 1;
#X connect 30 0 23 0;
#X coords 0 -1 1 1 85 220 1 100 100;
