#N canvas 22 103 651 505 10;
#X obj 181 64 gemwin;
#X obj 43 174 gemhead;
#X obj 47 149 tgl 15 0 empty empty empty 17 7 0 10 -262144 -1 -1 1
1;
#X obj 355 308 nbx 5 14 -1e+37 1e+37 0 0 empty empty empty 0 -8 0 10
-262144 -1 -1 0.350635 256;
#X obj 195 137 vsl 15 128 0 1 0 0 empty empty empty 0 -9 0 10 -262144
-1 -1 12700 1;
#X obj 233 112 vsl 15 128 0 1 0 0 empty empty empty 0 -9 0 10 -262144
-1 -1 0 1;
#X obj 260 122 vsl 15 128 0 1 0 0 empty empty empty 0 -9 0 10 -262144
-1 -1 0 1;
#X obj 201 288 pack f f f;
#X msg 196 316 \$1 \$2 \$3;
#X obj 500 114 tgl 15 0 empty empty empty 17 7 0 10 -262144 -1 -1 0
1;
#X obj 82 334 color 1 0 0;
#X obj 215 257 b;
#X obj 76 360 circle;
#X msg 302 42 fulscreen;
#X obj 430 207 snapshot~;
#X msg 255 18 0 \, destroy;
#X obj 251 42 tgl 15 0 empty empty empty 17 7 0 10 -262144 -1 -1 1
1;
#X obj 380 272 abs;
#X obj 324 170 adc~;
#X obj 417 249 * 3;
#X obj 404 111 tgl 15 0 empty empty empty 17 7 0 10 -262144 -1 -1 0
1;
#X obj 334 204 snapshot~;
#X obj 380 176 metro 1;
#X obj 346 240 * 30;
#X obj 229 408 sphere;
#X msg 223 373 draw point;
#X msg 297 372 4;
#X obj 265 347 loadbang;
#X obj 476 179 metro 50;
#X obj 344 401 int;
#X obj 364 373 /;
#X obj 539 193 osc~ 0.1;
#X obj 348 446 min 100;
#X msg 334 339 100;
#X obj 498 359 colorRGB;
#X msg 21 18 0 \, destroy \, dimen 640 480 \, create \, 1;
#X connect 1 0 12 0;
#X connect 1 0 10 0;
#X connect 1 0 24 0;
#X connect 2 0 1 0;
#X connect 3 0 12 1;
#X connect 3 0 33 0;
#X connect 3 0 30 1;
#X connect 4 0 7 0;
#X connect 5 0 7 1;
#X connect 5 0 11 0;
#X connect 6 0 7 2;
#X connect 6 0 11 0;
#X connect 7 0 8 0;
#X connect 8 0 10 1;
#X connect 9 0 28 0;
#X connect 9 0 31 0;
#X connect 10 0 12 0;
#X connect 11 0 7 0;
#X connect 13 0 0 0;
#X connect 14 0 19 0;
#X connect 14 0 7 2;
#X connect 14 0 11 0;
#X connect 15 0 0 0;
#X connect 16 0 0 0;
#X connect 17 0 3 0;
#X connect 18 0 21 0;
#X connect 18 1 21 0;
#X connect 19 0 17 0;
#X connect 20 0 22 0;
#X connect 21 0 23 0;
#X connect 22 0 21 0;
#X connect 23 0 17 0;
#X connect 25 0 24 0;
#X connect 26 0 24 1;
#X connect 27 0 26 0;
#X connect 27 0 25 0;
#X connect 28 0 14 0;
#X connect 29 0 32 0;
#X connect 30 0 29 0;
#X connect 31 0 14 0;
#X connect 32 0 24 2;
#X connect 33 0 30 0;
#X connect 35 0 0 0;
