#N canvas 473 217 500 326 10;
#X obj 386 93 dac_mixer;
#X obj 389 47 catch~ neuron;
#X obj 389 68 *~ 0.1;
#X msg 342 18 1;
#X msg 305 18 0;
#X obj 306 52 send sedate;
#X obj 136 188 neuron;
#X obj 207 69 neuron;
#X obj 57 77 neuron;
#X obj 147 32 neuron;
#X obj 58 193 neuron;
#X obj 99 129 neuron;
#X obj 245 124 neuron;
#X obj 202 177 neuron;
#X connect 1 0 2 0;
#X connect 2 0 0 0;
#X connect 3 0 5 0;
#X connect 4 0 5 0;
#X connect 6 0 7 0;
#X connect 6 0 12 0;
#X connect 7 0 6 0;
#X connect 7 0 8 0;
#X connect 7 0 12 0;
#X connect 7 0 13 0;
#X connect 8 0 7 0;
#X connect 8 0 9 0;
#X connect 8 0 10 0;
#X connect 9 0 6 0;
#X connect 9 0 7 0;
#X connect 9 0 8 0;
#X connect 10 0 6 0;
#X connect 11 0 7 0;
#X connect 11 0 10 0;
#X connect 12 0 7 0;
#X connect 12 0 11 0;
#X connect 12 0 13 0;
#X connect 13 0 11 0;
