#N canvas 0 24 1280 693 10;
#X obj 350 152 osc~;
#X obj 359 114 nbx 5 14 -1e+37 1e+37 0 0 empty empty empty 0 -8 0 10
-262144 -1 -1 235 256;
#X obj 341 358 dac~;
#X obj 540 427 oscope~;
#X obj 354 299 *~ 1;
#X obj 354 270 hip~ 1;
#X obj 820 98 env~;
#X obj 863 139 nbx 5 14 -1e+37 1e+37 0 0 empty empty empty 0 -8 0 10
-262144 -1 -1 0 256;
#X obj 870 278 nbx 5 14 -1e+37 1e+37 0 0 empty empty empty 0 -8 0 10
-262144 -1 -1 -0.02 256;
#X obj 836 232 /;
#X obj 852 167 - 100;
#X msg 819 200 2;
#X obj 224 395 snapshot~;
#X obj 190 518 nbx 5 14 -1e+37 1e+37 0 0 empty empty empty 0 -8 0 10
-262144 -1 -1 0.153583 256;
#X obj 183 472 +;
#X obj 196 441 abs;
#X obj 240 472 + 1;
#X obj 275 519 nbx 5 14 -1e+37 1e+37 0 0 empty empty empty 0 -8 0 10
-262144 -1 -1 10 256;
#X msg 231 440 1;
#X obj 164 326 tgl 15 0 empty empty empty 17 7 0 10 -262144 -1 -1 0
1;
#X obj 218 554 /;
#X obj 189 629 nbx 5 14 -1e+37 1e+37 0 0 empty empty empty 0 -8 0 10
-262144 -1 -1 32.5556 256;
#X obj 169 369 metro 10;
#X obj 187 592 * 0.5;
#X msg 143 486 1;
#X msg 55 440 0;
#X obj 103 525 *;
#X obj 110 435 metro 100;
#X obj 616 288 nbx 5 14 -1e+37 1e+37 0 0 empty empty empty 0 -8 0 10
-262144 -1 -1 70.7102 256;
#X obj 532 258 nbx 5 14 -1e+37 1e+37 0 0 empty empty empty 0 -8 0 10
-262144 -1 -1 136.99 256;
#X obj 561 220 env~;
#X obj 364 232 *~ 0;
#X obj 604 259 dbtorms;
#X obj 570 311 /;
#X msg 557 291 1;
#X obj 569 348 nbx 5 14 -1e+37 1e+37 0 0 empty empty empty 0 -8 0 10
-262144 -1 -1 0.0141422 256;
#X obj 352 188 *~ 100;
#X connect 0 0 36 0;
#X connect 1 0 0 0;
#X connect 4 0 2 0;
#X connect 4 0 3 0;
#X connect 4 0 2 1;
#X connect 5 0 4 0;
#X connect 6 0 7 0;
#X connect 7 0 10 0;
#X connect 9 0 8 0;
#X connect 10 0 11 0;
#X connect 10 0 9 1;
#X connect 11 0 9 0;
#X connect 12 0 15 0;
#X connect 12 0 18 0;
#X connect 13 0 14 1;
#X connect 13 0 20 1;
#X connect 14 0 13 0;
#X connect 15 0 14 0;
#X connect 16 0 17 0;
#X connect 17 0 16 1;
#X connect 17 0 20 0;
#X connect 18 0 16 0;
#X connect 19 0 22 0;
#X connect 19 0 27 0;
#X connect 20 0 23 0;
#X connect 20 0 26 1;
#X connect 22 0 12 0;
#X connect 23 0 21 0;
#X connect 24 0 17 0;
#X connect 24 0 26 0;
#X connect 25 0 13 0;
#X connect 25 0 17 0;
#X connect 26 0 13 0;
#X connect 27 0 24 0;
#X connect 28 0 33 1;
#X connect 30 0 29 0;
#X connect 30 0 32 0;
#X connect 31 0 5 0;
#X connect 32 0 28 0;
#X connect 32 0 34 0;
#X connect 33 0 35 0;
#X connect 34 0 33 0;
#X connect 35 0 31 1;
#X connect 36 0 30 0;
#X connect 36 0 31 0;
