#N canvas 432 149 591 411 10;
#X obj 76 355 tabwrite~ wave;
#N canvas 0 0 450 300 (subpatch) 0;
#X array wave 100 float 2;
#X coords 0 1 99 -1 200 140 1;
#X restore 105 114 graph;
#X obj 99 331 metro 300;
#X obj 108 256 hsl 200 15 0 127 0 0 empty empty empty -2 -8 0 10 -262144
-1 -1 0 1;
#X obj 256 273 nbx 5 14 -1e+37 1e+37 0 0 empty empty empty 0 -8 0 10
-262144 -1 -1 0 256;
#X obj 127 297 * 5;
#X obj 76 62 inlet~;
#X connect 2 0 0 0;
#X connect 3 0 2 0;
#X connect 3 0 5 0;
#X connect 4 0 2 1;
#X connect 5 0 2 1;
#X connect 5 0 4 0;
#X connect 6 0 0 0;
#X coords 0 -1 80 1 220 190 1 100 100;
